PathFileType	4	(X/Y/Z)	/Users/visionmauri/Downloads/Videos/OAW01-top_Sports2D/OAW01-top_Sports2D_m_person00.trc
DataRate	CameraRate	NumFrames	NumMarkers	Units	OrigDataRate	OrigDataStartFrame	OrigNumFrames
26.0	26.0	5	22	m	26.0	0	2035
Frame#	Time	Hip			RHip			RKnee			RAnkle			RBigToe			RSmallToe			RHeel			LHip			LKnee			LAnkle			LBigToe			LSmallToe			LHeel			Neck			Head			Nose			RShoulder			RElbow			RWrist			LShoulder			LElbow			LWrist			
		X1	Y1	Z1	X2	Y2	Z2	X3	Y3	Z3	X4	Y4	Z4	X5	Y5	Z5	X6	Y6	Z6	X7	Y7	Z7	X8	Y8	Z8	X9	Y9	Z9	X10	Y10	Z10	X11	Y11	Z11	X12	Y12	Z12	X13	Y13	Z13	X14	Y14	Z14	X15	Y15	Z15	X16	Y16	Z16	X17	Y17	Z17	X18	Y18	Z18	X19	Y19	Z19	X20	Y20	Z20	X21	Y21	Z21	X22	Y22	Z22
0	0.0	1.5702698058147697	1.0157425020556614	0.0301	1.5387403943347997	1.0151319118918256	0.0301	1.516824330184284	0.8638758102822652	0.129	1.4952113802648275	0.7551283685671768	0.023	1.49202072927186	0.6938877118518554	0.2179	1.473466898387641	0.7034986086673878	0.1804	1.497366853072175	0.7379098997517569	-0.0119	1.6001048952909382	1.0048125234898158	0.0301	1.577579870443985	0.8536591705062558	0.129	1.5562422968090246	0.742235850942509	0.023	1.5382049645904825	0.6845368211248243	0.2179	1.5600584061043086	0.6869155321253877	0.1804	1.5555048944149112	0.7306902221477678	-0.0119	1.6015273922970645	1.1954300003214449	0.0008	1.6128733352005271	1.2405824357593787	0.0655	1.6110652031967392	1.233693950256307	0.1076	1.543693689268908	1.1969349369533282	-0.01275	1.514735206917526	1.087187205073585	0.0702	1.4990442411251828	1.0018790505821311	0.1076	1.6542604088703847	1.1793867796328263	-0.01275	1.6530108796738086	1.0603632396194136	0.0702	1.6420403356892423	0.9665884300387402	0.1076
1	0.038480447772483176	1.5702079468799162	1.0141007397974706	0.0301	1.538038933289727	1.0141431383329753	0.0301	1.516243440396887	0.8646581753972342	0.129	1.494768845191205	0.7561571007111008	0.023	1.4919167532908573	0.6953195939029323	0.2179	1.4732583691544536	0.7053008377594373	0.1804	1.4960905334047871	0.7394756291684444	-0.0119	1.599683467024712	1.0042378249183692	0.0301	1.5774359149758894	0.854767024846379	0.129	1.5563928943766527	0.744145487206818	0.023	1.5382266586019535	0.6856866014698839	0.2179	1.5592271263788378	0.6882073645738223	0.1804	1.5541400389353717	0.7324353809217016	-0.0119	1.6016794112260142	1.1948748473993962	0.0008	1.6149485395400505	1.241875936409387	0.0655	1.6092044068252591	1.2146837706323546	0.1076	1.5440317242133694	1.1968055358601921	-0.01275	1.5147388267754873	1.0871841820793553	0.0702	1.498737001309194	1.0023109186826231	0.1076	1.6549397820894718	1.1780116943721146	-0.01275	1.6534025286449834	1.0586612417507648	0.0702	1.6419833856241282	0.9647065017167816	0.1076
2	0.07696089554496635	1.5701261695508586	1.01197214208044	0.0301	1.5377166501568564	1.013817877463274	0.0301	1.5154249976108736	0.8652230052599394	0.129	1.494956608603835	0.7575867382651967	0.023	1.4917930799479222	0.6965819688875098	0.2179	1.472900059302509	0.7070642994686351	0.1804	1.495058754390466	0.7411373915301773	-0.0119	1.5995096496823809	1.0037907620985538	0.0301	1.5772881702490031	0.8562527875158047	0.129	1.5565930789346014	0.7463897242513572	0.023	1.538252245332542	0.6867976010876575	0.2179	1.558605838348419	0.6895668309086742	0.1804	1.55217138807693	0.7333103935191501	-0.0119	1.601528113661567	1.1943518556991262	0.0008	1.6171828938226889	1.2432116677503589	0.0655	1.6077919496918174	1.1972636708804476	0.1076	1.544165462763518	1.1966950575164794	-0.01275	1.5146993871257701	1.0872093571210208	0.0702	1.4984568088353993	1.0037418620884044	0.1076	1.655841335225989	1.176728181725522	-0.01275	1.653737459264451	1.057467156631132	0.0702	1.6419473516928256	0.9658076449645895	0.1076
3	0.11544134331744953	1.5701764682231438	1.0112760048527933	0.0301	1.5380752082820535	1.0145527828528877	0.0301	1.515073846311264	0.8650974262862995	0.129	1.495897279493468	0.7586775388833747	0.023	1.4919685319027778	0.6964291998103365	0.2179	1.4727792948345722	0.7065723912910729	0.1804	1.4944439772037355	0.7418087240285322	-0.0119	1.6001610792084642	1.0038647837027006	0.0301	1.5772290725529736	0.8571763606470099	0.129	1.5566312492764491	0.7469666719565633	0.023	1.5382740672116468	0.6866044100543282	0.2179	1.5592911673904926	0.6899071972835858	0.1804	1.5506626174929088	0.7324209220216858	-0.0119	1.6011068067983751	1.1956037207902666	0.0008	1.6174694006415233	1.2433994839624316	0.0655	1.6078052966314293	1.193554556049842	0.1076	1.5437774047142634	1.1966848211715355	-0.01275	1.5146418109067774	1.0870249776107241	0.0702	1.4984498452332746	1.0053246402485638	0.1076	1.6562794138818941	1.1761684264220453	-0.01275	1.6536782728643264	1.0569655398744882	0.0702	1.642202788820964	0.9691742759560592	0.1076
4	0.1539217910899327	1.570487948485853	1.0132205813087256	0.0301	1.5386484329868195	1.0152488206606227	0.0301	1.5155340040102474	0.8645512901468806	0.129	1.496300538434293	0.7587539985289645	0.023	1.4926361395989383	0.6955025629919883	0.2179	1.4732110980826554	0.704031266273694	0.1804	1.4937423615229395	0.74174960214628	-0.0119	1.601279385600606	1.0044015192613094	0.0301	1.5772311325740123	0.8570618796027828	0.129	1.5564009582967213	0.745533133783041	0.023	1.5383031771679503	0.6853574276048665	0.2179	1.5608884664779343	0.6894197680065852	0.1804	1.5502702171424256	0.7308963372139928	-0.0119	1.601258950216974	1.199283840616781	0.0008	1.6161776780250225	1.2411795341002323	0.0655	1.6082094659676136	1.1972143747614632	0.1076	1.5433692730426034	1.1966456372392564	-0.01275	1.5146050661153254	1.0867634660404801	0.0702	1.4986170124160385	1.005323992807111	0.1076	1.6560272867668198	1.1759085698369591	-0.01275	1.6532049291020754	1.0562654388953903	0.0702	1.6425151649480434	0.9709157206012998	0.1076
